<svg width="420" height="240" viewBox="0 0 420 240" fill="none" xmlns="http://www.w3.org/2000/svg">
<path fill-rule="evenodd" clip-rule="evenodd" d="M108.833 66.5419C132.458 53.6162 170.742 53.5764 194.184 66.4357L236.782 89.8055L219.158 99.4401L176.546 76.0703C162.745 68.506 140.216 68.5325 126.317 76.1367C112.417 83.7408 112.319 96.0959 126.106 103.66L168.704 127.043L151.066 136.691L108.468 113.308C85.0398 100.449 85.1944 79.4676 108.833 66.5419Z" fill="#D8D8D8"/>
<path d="M99.0386 76.5613H91.0137V90.8141H99.0386V76.5613Z" fill="#D8D8D8"/>
<path fill-rule="evenodd" clip-rule="evenodd" d="M108.833 53.7226C132.458 40.7968 170.742 40.757 194.184 53.6164L236.782 76.9862L219.158 86.6208L176.546 63.251C162.745 55.6866 140.216 55.7132 126.317 63.3173C112.417 70.9215 112.319 83.2765 126.106 90.8409L168.704 114.211L151.066 123.859L108.468 100.489C85.0398 87.6294 85.1944 66.6483 108.833 53.7226Z" fill="#EDEDED"/>
<path d="M123.62 133.891C154.328 116.971 185.05 100.038 215.758 83.1174C219.342 81.3524 226.004 78.6451 234.745 78.4461C247.071 78.1674 256.037 83.0245 259.495 85.1478C279.719 96.2024 299.942 107.27 320.152 118.325C326.673 121.536 329.85 127.813 328.304 132.909C327.095 136.904 323.342 138.961 322.218 139.531C290.315 157.115 258.412 174.699 226.524 192.283C222.968 193.636 217.613 195.189 210.98 195.322C199.118 195.547 190.306 191.102 186.484 188.859C166.428 177.857 146.387 166.856 126.332 155.854C119.221 152.776 115.637 146.22 117.155 140.898C118.391 136.612 122.523 134.435 123.62 133.891Z" fill="#D8D8D8"/>
<path d="M328.713 110.854H305.734V130.348H328.713V110.854Z" fill="#D8D8D8"/>
<path d="M130.282 123.872H116.832V143.407H130.282V123.872Z" fill="#D8D8D8"/>
<path d="M123.62 114.741C154.328 97.808 185.05 80.8878 215.758 63.9543C219.342 62.1893 226.004 59.482 234.745 59.283C247.071 59.0043 256.037 63.8614 259.495 65.9847C279.719 77.0393 299.942 88.1071 320.152 99.1616C326.673 102.373 329.85 108.65 328.304 113.746C327.095 117.741 323.342 119.798 322.218 120.368C290.315 137.952 258.412 155.536 226.524 173.12C222.968 174.473 217.613 176.026 210.98 176.159C199.118 176.384 190.306 171.938 186.484 169.696C166.428 158.694 146.387 147.693 126.332 136.691C119.221 133.613 115.637 127.057 117.155 121.735C118.391 117.462 122.523 115.272 123.62 114.741Z" fill="white"/>
<path d="M123.837 115.192L123.849 115.186L123.861 115.179C139.214 106.713 154.571 98.2502 169.928 89.7873L169.93 89.7858C185.284 81.3243 200.639 72.8627 215.989 64.3978C219.537 62.6517 226.121 59.9795 234.757 59.7829C246.945 59.5073 255.814 64.3111 259.233 66.4108L259.244 66.4174L259.255 66.4235C273.498 74.2089 287.741 82.0009 301.979 89.7902C307.958 93.0609 313.936 96.3312 319.912 99.6003L319.922 99.6054L319.931 99.6102C326.305 102.749 329.279 108.809 327.825 113.601L327.825 113.601C326.682 117.38 323.109 119.356 321.992 119.922L321.984 119.926L321.977 119.93L321.948 119.946C290.065 137.519 258.182 155.092 226.313 172.665C222.794 174.001 217.51 175.528 210.97 175.659C199.238 175.882 190.52 171.484 186.737 169.264L186.73 169.261L186.724 169.257C176.765 163.794 166.809 158.331 156.853 152.868L156.648 152.755C146.624 147.254 136.6 141.754 126.572 136.253L126.552 136.242L126.531 136.232C119.57 133.219 116.208 126.878 117.635 121.873C118.807 117.827 122.749 115.719 123.837 115.192Z" stroke="#D2D2D2" stroke-opacity="0.21"/>
<path fill-rule="evenodd" clip-rule="evenodd" d="M212.723 120.368C206.286 121.085 199.273 120.05 194.256 117.303C186.456 113.029 186.413 106.208 194.185 102.068L195.253 101.537C202.66 98.1131 213.819 98.206 221.268 101.736C227.142 104.523 229.292 108.623 227.775 112.353L254.393 121.217C257.555 122.266 258.103 124.615 255.503 126.008L237.57 135.576C234.97 136.957 230.628 136.625 228.73 134.913L212.723 120.368Z" fill="#000000"/>
</svg>
